<?xml version="1.0" standalone="no"?>
<!DOCTYPE svg PUBLIC "-//W3C//DTD SVG 20010904//EN"
 "http://www.w3.org/TR/2001/REC-SVG-20010904/DTD/svg10.dtd">
<svg version="1.0" xmlns="http://www.w3.org/2000/svg"
 width="127.000000pt" height="127.000000pt" viewBox="0 0 127.000000 127.000000"
 preserveAspectRatio="xMidYMid meet">
<metadata>
Created by potrace 1.11, written by Peter Selinger 2001-2013
</metadata>
<g transform="translate(0.000000,127.000000) scale(0.100000,-0.100000)"
fill="#000000" stroke="none">
<path d="M0 635 l0 -635 635 0 635 0 0 635 0 635 -635 0 -635 0 0 -635z m1047
332 c16 -16 18 -44 21 -280 3 -298 1 -305 -64 -322 -30 -7 -54 -24 -87 -60
-44 -49 -46 -50 -101 -50 -56 0 -58 1 -106 53 -47 50 -52 52 -101 52 -48 0
-54 -3 -93 -44 -49 -52 -73 -66 -118 -66 -43 0 -90 29 -117 73 -14 23 -35 40
-58 48 -35 11 -35 12 -28 53 4 22 10 84 14 136 3 52 12 104 18 115 25 44 110
114 158 132 l50 19 10 66 c5 37 15 72 20 77 17 16 62 19 317 17 223 -1 249 -3
265 -19z"/>
<path d="M726 868 c-9 -12 -16 -32 -16 -45 0 -25 -11 -34 -60 -48 -30 -9 -35
-15 -35 -40 0 -26 5 -31 39 -40 41 -12 46 -17 67 -73 10 -27 16 -33 38 -30 19
2 28 11 34 33 16 51 23 59 61 68 68 17 66 71 -4 86 -31 6 -37 12 -51 56 -18
58 -47 71 -73 33z"/>
<path d="M360 685 c-16 -19 -6 -45 18 -45 28 0 56 25 49 44 -8 20 -50 21 -67
1z"/>
<path d="M383 384 c-8 -21 13 -42 28 -27 13 13 5 43 -11 43 -6 0 -13 -7 -17
-16z"/>
<path d="M794 385 c-4 -9 -2 -21 3 -26 14 -14 45 1 41 20 -4 22 -37 26 -44 6z"/>
</g>
</svg>
